<?xml version="1.0" standalone="no"?>
<!DOCTYPE svg PUBLIC "-//W3C//DTD SVG 1.1//EN" "http://www.w3.org/Graphics/SVG/1.1/DTD/svg11.dtd" >
<svg>
<metadata>
Created by FontForge 20110222 at Tue Jul 29 23:40:50 2014
 By Orthosie Webhosting
Created by Youssef Habchi http://youssef-habchi.com. Free for personnal and commercial use. 2014
</metadata>
<defs>
<font id="KirvyThin" horiz-adv-x="721" >
  <font-face 
    font-family="KirvyThin"
    font-weight="100"
    font-stretch="normal"
    units-per-em="1000"
    panose-1="0 0 5 3 0 0 0 0 0 0"
    ascent="800"
    descent="-200"
    x-height="564"
    cap-height="769"
    bbox="50 -193 983 959"
    underline-thickness="50"
    underline-position="-100"
    unicode-range="U+0020-20AC"
  />
<missing-glyph horiz-adv-x="500" 
d="M50 0v533h400v-533h-400zM100 50h300v433h-300v-433z" />
    <glyph glyph-name=".notdef" horiz-adv-x="500" 
d="M50 0v533h400v-533h-400zM100 50h300v433h-300v-433z" />
    <glyph glyph-name=".null" horiz-adv-x="0" 
 />
    <glyph glyph-name="nonmarkingreturn" horiz-adv-x="333" 
 />
    <glyph glyph-name="space" unicode=" " horiz-adv-x="266" 
 />
    <glyph glyph-name="exclam" unicode="!" horiz-adv-x="193" 
d="M236 328v441h21v-441h-21zM247 84q14 0 22.5 -9t8.5 -25.5t-8.5 -25.5t-23.5 -9q-14 0 -22.5 9.5t-8.5 24.5q0 16 9 25.5t23 9.5z" />
    <glyph glyph-name="quotedbl" unicode="&#x22;" horiz-adv-x="259" 
d="M85 638v131h20v-131h-20zM167 638v131h20v-131h-20z" />
    <glyph glyph-name="numbersign" unicode="#" horiz-adv-x="646" 
d="M612 769l-83 -250h89v-19h-95l-65 -195h92v-19h-98l-90 -271h-20l90 271h-252l-90 -271h-20l90 271h-82v19h88l65 195h-85v19h91l83 250h20l-83 -250h252l83 250h20zM438 305l65 195h-252l-65 -195h252z" />
    <glyph glyph-name="dollar" unicode="$" horiz-adv-x="521" 
d="M466 307q18 -31 18 -73q0 -39 -13 -72q-13 -34 -39 -59q-48 -47 -130 -54l-14 -1v-33h-20v33l-14 1q-67 3 -109 24q-40 19 -71 64l-6 8l16 12l6 -8q25 -35 60 -56t102 -24l16 -1v323l-11 3q-79 22 -115 46q-31 21 -47 49q-18 32 -18 75q0 74 46 116q45 42 131 47l14 1v41
h20v-41l13 -1q86 -11 140 -89l5 -8l-16 -11l-6 8q-46 66 -119 79l-17 3v-303l11 -3q84 -24 120 -48q31 -20 47 -48zM153 457q32 -21 96 -40l19 -6v297l-16 -1q-75 -5 -115 -41.5t-40 -101.5q0 -70 56 -107zM304 70q73 6 116.5 50t43.5 114q0 68 -56 104q-32 22 -101 42
l-19 5v-317z" />
    <glyph glyph-name="percent" unicode="%" horiz-adv-x="594" 
d="M518 769h20l-435 -754h-21zM177 523q-46 0 -79 34.5t-33 83.5t33 83.5t79 34.5t78.5 -34.5t32.5 -83.5t-32.5 -83.5t-78.5 -34.5zM176.5 741q-39.5 0 -66.5 -29.5t-27 -70.5t27 -71t66.5 -30t67 30t27.5 71t-27.5 70.5t-67 29.5zM450 252q46 0 79 -34.5t33 -84t-33 -84
t-79 -34.5t-79 34.5t-33 84t33 84t79 34.5zM450 33q39 0 66.5 29.5t27.5 71t-27.5 71t-66.5 29.5t-66.5 -29.5t-27.5 -71t27.5 -71t66.5 -29.5z" />
    <glyph glyph-name="ampersand" unicode="&#x26;" horiz-adv-x="629" 
d="M600 -9q-56 24 -128 95l-11 10l-10 -10q-77 -71 -190 -71q-85 0 -141 42q-52 40 -63 105q-14 85 50 166q42 54 110 93l12 6l-6 13q-10 22 -18 43q-45 113 -34 184q7 48 40 74q34 28 95 28q66 0 108 -35q39 -32 47 -83q10 -62 -26 -119q-39 -62 -114 -87q-27 -9 -52 -20
l-14 -6l7 -14q31 -61 73 -122q54 -81 114 -146l12 -13l11 14q2 4 5 7q73 106 77 290h19q-1 -91 -20 -164q-21 -80 -60 -137l-10 -14l-9 -10l10 -9q69 -68 122 -91zM224 402q-63 -36 -102 -86q-58 -74 -46 -151q10 -61 60.5 -96t124.5 -35q105 0 176 65l11 10l-10 11
q-62 68 -119 152q-42 62 -74 124l-8 14zM306 749q-103 0 -116 -85q-12 -79 50 -214l6 -14l14 6q26 12 55 21q68 23 102 76.5t25 108.5q-8 47 -45 74t-91 27z" />
    <glyph glyph-name="quotesingle" unicode="'" horiz-adv-x="225" 
d="M112 767h20v-8q0 -70 -36 -123l-15 13q31 48 31 110v8z" />
    <glyph glyph-name="parenleft" unicode="(" horiz-adv-x="335" 
d="M284 -113q-84 12 -142 131q-62 129 -62 310t62 309q29 59 66 92.5t76 38.5v-19q-32 -5 -60 -30q-37 -32 -65 -90q-60 -125 -60 -301.5t60 -301.5q28 -58 65 -89q28 -25 60 -31v-19z" />
    <glyph glyph-name="parenright" unicode=")" horiz-adv-x="324" 
d="M63 -113v19q32 6 61 31q36 31 64 89q60 125 60 301.5t-60 301.5q-28 58 -64 90q-29 25 -61 30v19q84 -11 142 -131q62 -128 62 -309t-62 -310q-29 -59 -65.5 -92t-76.5 -39z" />
    <glyph glyph-name="asterisk" unicode="*" horiz-adv-x="479" 
d="M438 583v-18h-167l128 -170l-15 -10l-131 174l-132 -174l-14 10l127 170h-167v18h167l-127 169l14 11l132 -174l131 174l15 -11l-128 -169h167z" />
    <glyph glyph-name="plus" unicode="+" horiz-adv-x="569" 
d="M531 306v-20h-221v-270h-20v270h-221v20h221v270h20v-270h221z" />
    <glyph glyph-name="comma" unicode="," horiz-adv-x="205" 
d="M126 -126l-7 19q40 29 40 87v70h20v-70q0 -55 -33 -89q-9 -10 -20 -17z" />
    <glyph glyph-name="hyphen" unicode="-" horiz-adv-x="385" 
d="M81 286v20h245v-20h-245z" />
    <glyph glyph-name="period" unicode="." horiz-adv-x="201" 
d="M146.5 85q14.5 0 23 -9t8.5 -25t-8.5 -25.5t-23.5 -9.5q-14 0 -22.5 9.5t-8.5 24.5q0 16 8.5 25.5t23 9.5z" />
    <glyph glyph-name="slash" unicode="/" horiz-adv-x="506" 
d="M142 15h-21l250 754h21z" />
    <glyph glyph-name="zero" unicode="0" horiz-adv-x="571" 
d="M302.5 15q-83.5 0 -142.5 58q-52 52 -70 133q-15 72 -15 186t15 186q18 82 70 133q59 58 142.5 58t142.5 -58q53 -51 70 -133q15 -72 15 -186t-15 -186q-17 -81 -70 -133q-59 -58 -142.5 -58zM302.5 749q-41.5 0 -76 -15.5t-57.5 -41.5t-37.5 -55.5t-21.5 -62.5
q-15 -71 -15 -182t15 -182q7 -33 21.5 -62.5t37.5 -55.5t57.5 -41.5t76 -15.5t76 15.5t57.5 41.5t38 55.5t22 62.5q15 71 15 182t-15 182q-7 33 -22 62.5t-38 55.5t-57.5 41.5t-76 15.5z" />
    <glyph glyph-name="one" unicode="1" horiz-adv-x="326" 
d="M255 15h-20v714l-27 -33q-11 -13 -23 -26q-30 -32 -58 -52q-33 -24 -55 -24h-11v20h11q34 0 99 70q28 30 46 58q9 15 14 27h24v-754z" />
    <glyph glyph-name="two" unicode="2" horiz-adv-x="498" 
d="M452 15h-383v10q0 133 70 226q19 25 45.5 50t45.5 39.5t54 38.5q32 23 47.5 34.5t39.5 34t35.5 41t20.5 45.5t9 57v1q-2 42 -23 80q-44 77 -146 77q-76 0 -133 -43q-19 -14 -34 -32l-17 10q16 20 37 37q63 48 147 48q115 0 164 -89q24 -44 25 -88q0 -77 -50 -136
q-30 -35 -111 -93q-27 -19 -41 -29.5t-38.5 -31t-38.5 -36.5t-32 -41t-28 -49.5t-18 -57t-10 -68.5v-15h363v-20z" />
    <glyph glyph-name="three" unicode="3" horiz-adv-x="529" 
d="M281 21q-92 0 -161 53q-24 19 -42 42l18 10q16 -21 38 -37q63 -48 147 -48q85 0 138 55.5t53 127.5q0 74 -57 122q-64 54 -191 57l1 20q103 4 160 51q52 44 52 112q0 65 -48 115.5t-125 50.5q-35 0 -65.5 -9.5t-49.5 -21t-34.5 -26t-20.5 -21t-7 -10.5l-5 -9l-17 10l5 9
q14 25 46 49q63 49 148 49t141 -59q52 -54 52 -127q0 -77 -59 -127q-20 -17 -46 -28l-33 -16l35 -12q43 -15 73 -41q65 -55 65 -138q0 -80 -57 -139q-61 -64 -154 -64z" />
    <glyph glyph-name="four" unicode="4" horiz-adv-x="559" 
d="M526 322v-20h-91v-287h-20v287h-349v30l342 437h27v-447h91zM84 322h331v423z" />
    <glyph glyph-name="five" unicode="5" horiz-adv-x="528" 
d="M425 409.5q64 -67.5 64 -163t-64 -163.5t-154 -68q-65 0 -119 37.5t-81 100.5l-3 9l18 8l4 -9q24 -57 73 -91.5t108 -34.5q82 0 140 62t58 149t-58 149.5t-140 62.5q-83 0 -141 -63l-12 -14l-28 2l15 386h338v-20h-319l-14 -343l26 22q23 19 49 31q41 18 86 18
q90 0 154 -67.5z" />
    <glyph glyph-name="six" unicode="6" horiz-adv-x="561" 
d="M457 410q63 -68 63 -164t-62.5 -164t-152.5 -69q-89 1 -152 69q-33 36 -48.5 87.5t-15.5 158.5q0 12 -0.5 54t-0.5 56.5t1.5 51t4 54t7.5 46.5t12.5 46.5t18.5 37.5t25 35q55 58 158 58q51 0 97 -26q45 -24 75 -68l5 -8l-16 -11l-6 8q-27 40 -68 62.5t-87 22.5
q-94 0 -144 -52q-44 -45 -56 -120t-9 -182l1 -46l26 37q9 14 20 26q63 68 152 68t152 -68zM305 33q81 0 138 62.5t57 150t-57 150t-138 62.5t-138 -62.5t-57 -150t57 -150t138 -62.5z" />
    <glyph glyph-name="seven" unicode="7" horiz-adv-x="576" 
d="M172 15h-20q5 91 60 221q47 112 129 249q73 120 160 241l17 23h-449v20h467v-28q-91 -122 -178 -266q-177 -295 -186 -460z" />
    <glyph glyph-name="eight" unicode="8" horiz-adv-x="539" 
d="M438 366q64 -60 64 -145.5t-64 -145.5q-63 -60 -152.5 -60t-152.5 60q-64 60 -64 145.5t64 145.5q24 23 54 38l26 12l-26 14q-22 12 -40 29q-58 53 -58 128.5t58 128.5t139 53t139 -53t58 -128.5t-58 -128.5q-19 -17 -41 -29l-26 -14l26 -13q30 -14 54 -37zM109 587.5
q0 -67.5 52 -114.5t125 -47t125 47t52 114.5t-52 114.5t-125 47t-125 -47t-52 -114.5zM285 35q81 0 139 54t58 131.5t-58 131.5t-139 54t-138.5 -54t-57.5 -131.5t57.5 -131.5t138.5 -54z" />
    <glyph glyph-name="nine" unicode="9" horiz-adv-x="561" 
d="M133.5 370.5q-62.5 68.5 -62.5 164t63 163.5q62 69 151.5 69t152.5 -69q33 -36 48.5 -87.5t15.5 -158.5q0 -12 0.5 -54t0 -56.5t-1.5 -51t-3.5 -53.5t-7.5 -46.5t-12.5 -47t-18.5 -37.5t-25 -35q-56 -58 -158 -58q-52 0 -98 26q-44 25 -74 68l-5 8l16 11l5 -8
q28 -40 69 -62.5t87 -22.5q94 0 144 52q44 45 56 120t9 183l-1 45l-26 -37q-10 -14 -20 -25q-63 -69 -152.5 -69t-152 68.5zM285.5 747q-81.5 0 -138 -62.5t-56.5 -150t56.5 -150t138 -62.5t138 62.5t56.5 150t-56.5 150t-138 62.5z" />
    <glyph glyph-name="colon" unicode=":" horiz-adv-x="204" 
d="M146.5 85q14.5 0 23 -9t8.5 -25t-8.5 -25.5t-23.5 -9.5q-14 0 -22.5 9.5t-8.5 24.5q0 16 8.5 25.5t23 9.5zM146 408q-14 0 -22.5 9t-8.5 25t8.5 25t23 9t23 -9t8.5 -25t-8.5 -25t-23.5 -9z" />
    <glyph glyph-name="semicolon" unicode=";" horiz-adv-x="216" 
d="M169.5 476q14.5 0 23 -9t8.5 -25t-8.5 -25t-23.5 -9q-14 0 -22.5 9t-8.5 25t8.5 25t23 9zM159 -20v70h20v-70q0 -55 -33 -89q-9 -10 -20 -17l-7 19q40 29 40 87z" />
    <glyph glyph-name="less" unicode="&#x3c;" horiz-adv-x="582" 
d="M531 21l-465 278v13l465 279l9 -16l-448 -269l448 -269z" />
    <glyph glyph-name="equal" unicode="=" horiz-adv-x="589" 
d="M81 406v20h462v-20h-462zM81 174v20h462v-20h-462z" />
    <glyph glyph-name="greater" unicode="&#x3e;" horiz-adv-x="583" 
d="M83 21l-9 16l448 269l-448 269l9 16l465 -279v-13z" />
    <glyph glyph-name="question" unicode="?" horiz-adv-x="487" 
d="M399.5 81q13.5 0 22 -9t8.5 -24.5t-8.5 -24t-22.5 -8.5q-13 0 -21.5 9t-8.5 24t8.5 24t22 9zM555 720q49 -46 49 -124q0 -92 -41 -143q-25 -30 -85 -60q-40 -20 -58 -38t-18 -53v-9h-18v9q0 23 6 40.5t20.5 30.5t25.5 19.5t33 17.5t34.5 18.5t30.5 23t27.5 33t17 46.5
t7.5 65q0 76 -49.5 115t-141.5 39q-45 0 -85 -22.5t-69 -63.5l-5 -8l-15 11l5 8q31 45 75.5 69.5t93.5 24.5q108 0 160 -49z" />
    <glyph glyph-name="at" unicode="@" horiz-adv-x="924" 
d="M872 487q32 -89 32 -186q0 -32 -10 -81t-29 -91q-22 -51 -51 -80q-36 -35 -79 -35q-41 0 -61 25q-16 20 -18 52l-2 34l-24 -25q-28 -29 -63 -46q-43 -21 -90.5 -21t-90.5 21q-42 21 -74 58q-67 78 -67 188t67 188q32 37 74 57q43 21 90.5 21t90.5 -21q42 -20 74 -57
q30 -35 47 -79l18 -48l40 198l20 -4l-89 -438q-8 -41 12 -65q15 -18 46 -18q35 0 65 29q26 26 47 74q18 40 27.5 86t9.5 78q0 155 -80 278q-56 85 -138.5 133.5t-177.5 48.5q-108 0 -199.5 -62t-144 -168t-52.5 -230t52.5 -230t144 -168t199.5 -62q72 0 139 29q40 17 77 45
l8 6l12 -16l-8 -6q-39 -29 -81 -48q-71 -30 -147 -30q-85 0 -162 38q-75 36 -132.5 102.5t-88.5 152.5q-33 90 -33 187t33 187q31 86 88.5 152.5t132.5 102.5q77 38 162 38t163 -38q74 -36 131.5 -102.5t89.5 -153.5zM476.5 53q88.5 0 150 72.5t61.5 174t-61.5 174
t-150 72.5t-150 -72.5t-61.5 -174t61.5 -174t150 -72.5z" />
    <glyph glyph-name="A" unicode="A" horiz-adv-x="648" 
d="M85 15h-20l263 754h25l263 -754h-20l-108 308l-15 -8q-23 -11 -65 -11h-148q-23 0 -41.5 -7t-29 -17.5t-15 -17t-6.5 -10.5v-1zM341 747l-154 -440l29 9q20 7 44 7h148q46 0 65 14l8 7z" />
    <glyph glyph-name="B" unicode="B" horiz-adv-x="644" 
d="M542 364q60 -60 60 -144.5t-60 -144.5q-59 -59 -144 -60h-309v754h309q75 0 128.5 -53.5t53.5 -129.5q0 -49 -25 -91.5t-66 -66.5l-24 -14l24 -12q30 -15 53 -38zM398 749h-289v-281v-1q2 -17 12 -28q14 -15 44 -15h233q67 0 114.5 47.5t47.5 115t-47.5 115t-114.5 47.5z
M398 35q76 0 130 54t54 130t-54 130t-130 54l-233 1q-20 0 -35 6l-21 8v-383h243h46z" />
    <glyph glyph-name="C" unicode="C" horiz-adv-x="663" 
d="M379 15q-63 0 -119 30q-55 29 -97 81q-88 111 -88 266.5t88 265.5q42 52 97 81q56 30 119 30q73 0 137 -41q62 -39 104 -107l6 -9l-18 -11l-5 9q-41 66 -99.5 102.5t-124.5 36.5q-78 0 -143.5 -49t-103 -130.5t-37.5 -177.5t37.5 -177.5t103 -130.5t143.5 -49
q66 0 124.5 36.5t99.5 102.5l5 9l18 -11l-6 -9q-42 -68 -104 -107q-64 -41 -137 -41z" />
    <glyph glyph-name="D" unicode="D" horiz-adv-x="648" 
d="M304 15l-215 1v753h216q61 0 117 -30q54 -29 96 -81q87 -110 87 -264q0 -76 -23 -146q-23 -68 -64 -121q-42 -52 -96 -82q-56 -30 -118 -30zM109 36l196 -1q56 0 107 27t90 78q83 105 83 254q0 95 -37 176.5t-101.5 130t-141.5 48.5h-196v-713z" />
    <glyph glyph-name="E" unicode="E" horiz-adv-x="575" 
d="M526 15h-437v754h437v-20h-417v-340l20 8q16 6 36 6h361v-20h-361q-30 0 -45 -15q-10 -12 -11 -31v-322h417v-20z" />
    <glyph glyph-name="F" unicode="F" horiz-adv-x="585" 
d="M163 423h311v-20h-309q-30 0 -44 -15q-12 -13 -12 -33v-340h-20v754h462v-20h-442v-340l20 8q13 5 34 6z" />
    <glyph glyph-name="G" unicode="G" horiz-adv-x="713" 
d="M378 15q-62 0 -119 30q-54 29 -96 81q-88 111 -88 266.5t88 265.5q42 52 96 81q57 30 119 30q76 0 142 -44q58 -38 98 -104l-17 -10q-40 65 -99 101.5t-124 36.5q-78 0 -143.5 -48.5t-102.5 -130.5t-37 -178t37 -178t102.5 -130.5t143.5 -48.5q47 0 94.5 25.5t86 68.5
t64.5 104.5t30 128.5l1 16h-16h-50.5h-101h-50.5q-47 -1 -75 -28q-6 -5 -12 -13l-19 7q7 12 17 21q32 30 83 33h14.5h33.5h43.5h47h42.5h31.5h12.5h9q4 0 7 -3t3 -7q0 -74 -26 -143q-24 -66 -67 -119t-96.5 -82t-106.5 -29zM664 398z" />
    <glyph glyph-name="H" unicode="H" horiz-adv-x="625" 
d="M567 15h-20v421l-23 -14q-28 -18 -66 -19h-255q-47 0 -76 -27q-10 -10 -16 -21l-2 -4v-336h-20v754h20v-379l23 14q30 19 71 19h250q47 0 76 27q10 10 16 21l2 4v294h20v-754z" />
    <glyph glyph-name="I" unicode="I" horiz-adv-x="190" 
d="M89 15v754h20v-754h-20z" />
    <glyph glyph-name="J" unicode="J" horiz-adv-x="411" 
d="M63 15v20q75 6 136 55t96 128.5t35 172.5v378h20v-378q0 -155 -88 -265q-42 -52 -96 -81q-49 -26 -103 -30z" />
    <glyph glyph-name="K" unicode="K" horiz-adv-x="607" 
d="M109 769v-754h-20v754h20zM90 409l17 28q7 11 19 21l333 311h30l-350 -327q-20 -17 -20 -34t17 -31l392 -362h-30l-374 346h-1q-9 8 -16 19z" />
    <glyph glyph-name="L" unicode="L" horiz-adv-x="589" 
d="M124 35h427v-20h-462v754h20v-734h15z" />
    <glyph glyph-name="M" unicode="M" horiz-adv-x="733" 
d="M655 769h26v-754h-20v712l-260 -712h-32l-260 712v-712h-20v754h26l270 -739z" />
    <glyph glyph-name="N" unicode="N" horiz-adv-x="619" 
d="M529 15h-23l-397 730v-730h-20v754h29zM509 15v754h20v-754h-20z" />
    <glyph glyph-name="O" unicode="O" 
d="M378 15q-63 0 -119 30q-54 29 -96 81q-88 110 -88 265.5t88 266.5q42 52 96 81q57 30 119 30t119 -30q54 -29 96 -81q88 -111 88 -266.5t-88 -265.5q-42 -52 -96 -81q-57 -30 -119 -30zM378 749q-78 0 -143.5 -48.5t-102.5 -130.5t-37 -178t37 -178t102.5 -130.5
t143.5 -48.5t143 48.5t102.5 130.5t37.5 178t-37.5 178t-102.5 130.5t-143 48.5z" />
    <glyph glyph-name="P" unicode="P" horiz-adv-x="614" 
d="M398 769q75 0 128 -54t53 -130q0 -75 -53.5 -128.5t-128.5 -53.5h-232q-30 0 -45 -16q-9 -11 -11 -27v-1v-344h-20v754h309zM397 423q67 0 114.5 47.5t47.5 115t-47.5 115.5t-114.5 48h-288v-340l20 8q14 5 32 6h236z" />
    <glyph glyph-name="Q" unicode="Q" 
d="M626 32l1 -21q-14 2 -26 7q-31 13 -52 43l-9 12l-12 -8q-15 -11 -32 -20q-56 -30 -118 -30t-119 30q-54 29 -96 81q-88 111 -88 266.5t88 265.5q42 52 96 81q57 30 119 30t118 -30q55 -29 97 -81q88 -110 88 -265.5t-88 -266.5q-13 -16 -28 -30l-9 -9l7 -10
q23 -37 63 -45zM378 35q78 0 143 48.5t102.5 130.5t37.5 178t-37.5 178t-102.5 130.5t-143 48.5t-143.5 -48.5t-102.5 -130.5t-37 -178t37 -178t102.5 -130.5t143.5 -48.5z" />
    <glyph glyph-name="R" unicode="R" horiz-adv-x="627" 
d="M590 15h-22l-150 338v1q-12 20 -28 32t-24 14.5t-14 2.5h-187q-30 0 -45 -16q-9 -11 -11 -27v-1v-344h-20v754h308q75 0 128.5 -54t53.5 -130q0 -66 -42 -116t-106 -63l-24 -4l15 -20q9 -10 16 -24zM129 417q14 5 32 6h236q67 0 114.5 47.5t47.5 115t-47.5 115.5
t-114.5 48h-288v-340z" />
    <glyph glyph-name="S" unicode="S" horiz-adv-x="628" 
d="M328 15q-105 0 -167 27q-50 22 -89 71l-6 7l16 12l6 -8q23 -28 46 -45.5t73 -31t121 -13.5q107 0 172 50t65 136q0 27 -7 48.5t-24 38t-35 28.5t-48.5 23t-55.5 18t-65 17q-125 31 -172 58q-39 23 -59 54q-23 35 -23 83q0 81 58 128q64 53 194 53q59 0 112.5 -26
t90.5 -73l6 -7l-16 -12l-6 8q-34 44 -83 67.5t-104 23.5q-122 0 -181 -48q-50 -41 -50 -114q0 -28 7 -50t24 -38.5t35 -29t49 -23.5t56.5 -18.5t66.5 -17.5q123 -30 170 -57q38 -23 58 -53q23 -35 23 -81q0 -43 -17 -80q-16 -37 -48 -65q-70 -60 -193 -60z" />
    <glyph glyph-name="T" unicode="T" horiz-adv-x="642" 
d="M612 769v-20h-272v-734h-20v734h-257v20h549z" />
    <glyph glyph-name="U" unicode="U" horiz-adv-x="604" 
d="M317 16q-96 0 -164 67.5t-68 164.5v521h20v-521q0 -88 62 -150t150 -62t150 62t62 150v521h20v-521q0 -97 -68 -164.5t-164 -67.5z" />
    <glyph glyph-name="V" unicode="V" horiz-adv-x="654" 
d="M328 15l-263 754h21l258 -739l258 739h21l-263 -754h-32z" />
    <glyph glyph-name="W" unicode="W" horiz-adv-x="996" 
d="M964 769h19l-264 -754h-23l-172 633l-172 -633h-23l-264 754h19l256 -731l178 658h11l179 -658z" />
    <glyph glyph-name="X" unicode="X" horiz-adv-x="700" 
d="M659 769l-280 -377l280 -377h-23l-268 362l-269 -362h-22l279 377l-279 377h22l269 -362l268 362h23z" />
    <glyph glyph-name="Y" unicode="Y" horiz-adv-x="704" 
d="M668 769l-271 -364v-2q-17 -43 -17 -93v-295h-19v295q0 50 -16 93l-1 2l-270 364h23l274 -368l273 368h24z" />
    <glyph glyph-name="Z" unicode="Z" horiz-adv-x="683" 
d="M655 749l-565 -714h545v-20h-571v20l565 714h-545v20h571v-20z" />
    <glyph glyph-name="bracketleft" unicode="[" horiz-adv-x="229" 
d="M181 -123h-91v892h91v-20h-71v-852h71v-20z" />
    <glyph glyph-name="backslash" unicode="\" horiz-adv-x="383" 
d="M317 15l-250 754h21l250 -754h-21z" />
    <glyph glyph-name="bracketright" unicode="]" horiz-adv-x="231" 
d="M63 -123v20h71v852h-71v20h91v-892h-91z" />
    <glyph glyph-name="asciicircum" unicode="^" horiz-adv-x="456" 
d="M88 630l-11 16l171 119l155 -118l-12 -16l-144 110z" />
    <glyph glyph-name="underscore" unicode="_" horiz-adv-x="581" 
d="M75 15v20h462v-20h-462z" />
    <glyph glyph-name="grave" unicode="`" horiz-adv-x="205" 
d="M115 629v8q0 62 -31 110l15 13q36 -53 36 -123v-8h-20z" />
    <glyph glyph-name="a" unicode="a" horiz-adv-x="507" 
d="M258.5 15q-78.5 0 -134.5 44q-57 46 -57 110.5t57 109.5q56 45 135 45h121q22 -1 35 12q14 13 15 40v34q0 56 -48 95t-115 39q-42 0 -79 -17t-59 -47l-6 -8l-17 12l6 8q25 33 66.5 52.5t88.5 19.5q76 0 129 -45q54 -45 54 -109v-241q0 -64 -57 -110q-56 -44 -134.5 -44z
M380 304h-121q-72 0 -122 -41q-50 -39 -50 -94t50 -94q50 -40 121.5 -40t122.5 40q49 39 49 94v148l-20 -8q-15 -6 -30 -5z" />
    <glyph glyph-name="b" unicode="b" horiz-adv-x="525" 
d="M206 15h-117v754h20v-167q-1 -20 12 -33q14 -15 45 -15h40q112 0 190.5 -79t78.5 -190.5t-78.5 -190.5t-190.5 -79zM109 35h97q103 0 176 73t73 176.5t-73 176.5t-176 73h-40q-21 0 -37 6l-20 8v-513z" />
    <glyph glyph-name="c" unicode="c" horiz-adv-x="507" 
d="M300 15q-46 0 -89 22q-41 21 -72 59q-66 80 -66 193q0 53 17 104.5t48.5 89.5t72.5 59q43 22 89 22q100 0 154 -72l6 -8l-16 -12l-6 8q-22 30 -59 47t-79 17q-87 0 -147 -74.5t-60 -180.5t60 -180t147 -74q42 0 79 17t59 47l6 8l16 -12l-6 -8q-25 -34 -65 -53t-89 -19z
" />
    <glyph glyph-name="d" unicode="d" horiz-adv-x="520" 
d="M150 94q-79 79 -79 190.5t79 190.5t190 79h41q30 0 45 15q6 6 9 14.5t3 13.5l-1 5v167h20v-754h-117q-111 0 -190 79zM417 540q-15 -6 -36 -6h-41q-103 0 -176 -73t-73 -176.5t73 -176.5t176 -73h97v513z" />
    <glyph glyph-name="e" unicode="e" horiz-adv-x="516" 
d="M300 544q-76 0 -133 -59.5t-70 -147.5l-4 -26l24 9l23 4h136q82 0 130 37q41 32 41 78q0 43 -39.5 74t-107.5 31zM300 15q-95 0 -162 81q-44 55 -59 129v1q-6 23 -6 63q0 114 66 194q31 38 72 59q43 22 89 22q77 0 123 -38q44 -36 44 -87q0 -56 -49 -94q-53 -41 -142 -41
h-136q-18 0 -29 -10q-21 -20 -15 -50q14 -89 71 -149t133 -60q101 0 148 64l6 8l16 -12l-6 -8q-53 -72 -164 -72z" />
    <glyph glyph-name="f" unicode="f" horiz-adv-x="333" 
d="M277 769h10v-20h-10q-69 0 -118.5 -51.5t-52.5 -125.5l-1 -23l22 9q15 6 35 6h100v-20h-100q-30 0 -45 -16q-10 -12 -11 -31v-482h-20v549q0 84 56 145q56 60 135 60z" />
    <glyph glyph-name="g" unicode="g" horiz-adv-x="520" 
d="M342 567h117v-598q0 -64 -54 -109q-53 -45 -128 -45q-48 0 -89 19t-66 53l-6 8l16 12l6 -8q23 -30 59.5 -47t79.5 -17q66 0 114 38.5t48 95.5v15q-1 18 -12 29q-14 15 -44 15h-41q-111 0 -190 79t-79 190.5t79 190.5t190 79zM383 48q20 0 36 -6l20 -8v513h-97
q-103 0 -176 -73.5t-73 -176.5t73 -176t176 -73h41z" />
    <glyph glyph-name="h" unicode="h" horiz-adv-x="531" 
d="M415 496q56 -61 56 -146v-335h-20v335q0 77 -50 131.5t-121 54.5h-121v0q-15 -1 -29 5l-21 9v-535h-20v754h20v-156q0 -31 16 -45q13 -12 32 -12h123q33 0 63 -11q41 -16 72 -49z" />
    <glyph glyph-name="i" unicode="i" horiz-adv-x="187" 
d="M87 15v549h20v-549h-20zM97 743q10 0 10 -10v-14q0 -10 -10 -10t-10 10v14q0 10 10 10z" />
    <glyph glyph-name="j" unicode="j" horiz-adv-x="326" 
d="M244 743q10 0 10 -10v-14q0 -10 -10 -10t-10 10v14q0 10 10 10zM234 20v569h20v-569q0 -85 -56 -145t-135 -60h-10v20h10q71 0 121 54.5t50 130.5z" />
    <glyph glyph-name="k" unicode="k" horiz-adv-x="548" 
d="M239 314l258 -299h-27l-247 288q-13 15 -32 16q-10 0 -20 -5l-2 -1l-60 -48v-250h-20v754h20v-478l344 273h33l-282 -224l18 -11q10 -6 17 -15z" />
    <glyph glyph-name="l" unicode="l" horiz-adv-x="190" 
d="M89 15v754h20v-754h-20z" />
    <glyph glyph-name="m" unicode="m" horiz-adv-x="869" 
d="M771 504q56 -61 56 -146v-343h-20v343q0 77 -50 131.5t-121 54.5t-121 -54.5t-50 -131.5v-343h-20v343q0 77 -50 131.5t-121 54.5t-121 -54.5t-50 -131.5v-343h-20v343q0 85 56 146q56 60 135 60t135 -60q20 -21 33 -47l13 -26l13 26q13 26 33 47q56 60 135 60t135 -60z
" />
    <glyph glyph-name="n" unicode="n" horiz-adv-x="525" 
d="M465 15h-20v343q0 77 -50 131.5t-121 54.5t-121 -54.5t-50 -131.5v-343h-20v343q0 85 56 146q56 60 135 60t135 -60q56 -61 56 -146v-343z" />
    <glyph glyph-name="o" unicode="o" horiz-adv-x="592" 
d="M308.5 16q-48.5 0 -92.5 21q-42 21 -75 60q-68 80 -68 193t68 193q33 38 75 59q44 22 92.5 22t92.5 -22q42 -21 75 -59q68 -80 68 -193t-68 -193q-33 -39 -75 -60q-44 -21 -92.5 -21zM308.5 544q-90.5 0 -153 -75t-62.5 -179.5t62.5 -179t153 -74.5t153 74.5t62.5 179
t-62.5 179.5t-153 75z" />
    <glyph glyph-name="p" unicode="p" horiz-adv-x="524" 
d="M394.5 490q78.5 -79 78.5 -190.5t-78.5 -190.5t-190.5 -79h-41q-30 0 -44 -15q-6 -6 -9 -14.5t-3 -13.5v-5v-167h-20v754h117q112 0 190.5 -79zM127 44q16 6 36 6h41q103 0 176 73t73 176.5t-73 176.5t-176 73h-97v-513z" />
    <glyph glyph-name="q" unicode="q" horiz-adv-x="521" 
d="M342 569h117v-754h-20v167q1 20 -11 33q-15 15 -45 15h-41q-111 0 -190 79t-79 190.5t79 190.5t190 79zM439 549h-97q-103 0 -176 -73t-73 -176.5t73 -176.5t176 -73h41q21 0 36 -6l20 -8v513z" />
    <glyph glyph-name="r" unicode="r" horiz-adv-x="308" 
d="M103 15h-20v343q0 85 56 145q50 55 120 60v-20q-66 -6 -111 -59.5t-45 -125.5v-343z" />
    <glyph glyph-name="s" unicode="s" horiz-adv-x="486" 
d="M258 15q-74 0 -117 20q-35 16 -63 52l-6 8l16 12l6 -8q23 -30 58.5 -47t105.5 -17q73 0 117.5 35t44.5 96q0 53 -47 82q-31 18 -114 39q-87 22 -120 42q-59 36 -59 101q0 60 41 95q46 39 137 39q42 0 80 -19t64 -54l6 -7l-16 -13l-6 8q-49 65 -128 65q-75 0 -116.5 -28.5
t-41.5 -85.5q0 -54 49 -84q31 -18 115 -40q86 -21 119 -41q57 -35 57 -99q0 -66 -46 -107q-49 -44 -136 -44z" />
    <glyph glyph-name="t" unicode="t" horiz-adv-x="316" 
d="M105 221q0 -72 45.5 -125.5t111.5 -59.5v-20q-71 6 -121 60q-56 60 -56 145v548h20v-230l21 8q15 6 36 6h100v-20h-100q-31 0 -45 -15q-11 -12 -12 -31v-266z" />
    <glyph glyph-name="u" unicode="u" horiz-adv-x="521" 
d="M273 15q-79 0 -135 60q-56 61 -56 146v343h20v-343q0 -77 50 -131.5t121 -54.5t121 54.5t50 131.5v343h20v-343q0 -85 -56 -146q-56 -60 -135 -60z" />
    <glyph glyph-name="v" unicode="v" horiz-adv-x="541" 
d="M296 15h-26l-204 549h21l196 -526l196 526h22z" />
    <glyph glyph-name="w" unicode="w" horiz-adv-x="833" 
d="M449 495l141 -455l196 524h21l-204 -549h-26l-141 454l-140 -454h-26l-204 549h21l195 -524l142 455h25z" />
    <glyph glyph-name="x" unicode="x" horiz-adv-x="547" 
d="M497 564l-199 -274l199 -275h-23l-187 259l-187 -259h-23l199 275l-199 274h23l187 -259l187 259h23z" />
    <glyph glyph-name="y" unicode="y" horiz-adv-x="545" 
d="M485 564h20l-232 -621q-20 -57 -66 -92q-47 -36 -106 -36h-9v18h9q52 0 94.5 32t60.5 85l3 8q9 29 -4 86q-6 29 -15 54l-174 466h19l172 -460q6 -18 12 -41l12 -46z" />
    <glyph glyph-name="z" unicode="z" horiz-adv-x="532" 
d="M474 15h-409v21l403 508h-384v20h410v-21l-404 -508h384v-20z" />
    <glyph glyph-name="braceleft" unicode="{" horiz-adv-x="388" 
d="M328 -109q-78 0 -104 63q-15 37 -17 144q-3 122 -27.5 168.5t-88.5 49.5h-28v28h28h1q63 3 87.5 49.5t27.5 168.5q2 107 17 144q27 65 108 63h14v-28h-15q-62 2 -81 -45q-13 -33 -15 -135q-3 -133 -32 -185q-12 -21 -30 -34l-15 -12l15 -12q18 -13 30 -35q29 -51 32 -184
q2 -102 15 -135q19 -47 81 -46l15 1v-28h-14h-4z" />
    <glyph glyph-name="bar" unicode="|" horiz-adv-x="190" 
d="M90 -121v890h20v-890h-20z" />
    <glyph glyph-name="braceright" unicode="}" horiz-adv-x="389" 
d="M82 -109h-4h-14v28l15 -1q62 -1 81 46q13 33 15 135q3 133 32 184q12 22 30 35l15 12l-15 12q-18 13 -30 34q-29 51 -32 185q-2 102 -15 135q-19 47 -81 45h-15v28h14q81 2 108 -63q15 -37 17 -144q3 -122 27.5 -168.5t88.5 -49.5h28v-28h-28q-64 -3 -88.5 -49.5
t-27.5 -168.5q-2 -107 -17 -144q-26 -63 -104 -63z" />
    <glyph glyph-name="asciitilde" unicode="~" horiz-adv-x="532" 
d="M372 281q-24 0 -48.5 14t-58.5 41q-2 2 -8.5 7t-9.5 7.5t-9 7t-10 7t-10 6t-10 5.5t-10 4t-11 3t-10 1t-10 -1q-35 -9 -67 -76l-4 -9l-18 9l4 9q36 76 80 86q27 6 60 -11q19 -10 56 -40q1 0 10 -7.5t11.5 -9t11 -8t12 -8.5t11.5 -6.5t13 -6t12 -3t13 -1.5t12 2
q42 9 81 93l4 9l18 -9l-4 -9q-22 -47 -46 -73q-23 -25 -48 -31q-9 -2 -17 -2z" />
    <glyph glyph-name="exclamdown" unicode="&#xa1;" horiz-adv-x="194" 
d="M93 15v441h21v-441h-21zM104 701q-14 0 -23 9t-9 25q0 15 8.5 24.5t22.5 9.5q15 0 23.5 -9t8.5 -25t-8.5 -25t-22.5 -9z" />
    <glyph glyph-name="cent" unicode="&#xa2;" horiz-adv-x="483" 
d="M423 99l6 8l16 -12l-6 -8q-45 -60 -128 -70l-13 -2v-52h-20v52l-13 1q-36 4 -69 21q-41 21 -72 59q-66 80 -66 194q0 113 66 193q31 38 72 59q33 17 69 21l13 1v52h20v-52l13 -2q83 -10 128 -70l6 -8l-16 -12l-6 8q-22 30 -59 47t-79 17q-87 0 -147 -75t-60 -179
q0 -105 60 -180t147 -75q42 0 79 17t59 47z" />
    <glyph glyph-name="sterling" unicode="&#xa3;" horiz-adv-x="574" 
d="M540 15h-476v20q40 7 61 57q31 73 35 249v16h-79v20h79v15q0 114 16 190q14 72 43 114q26 38 67 54q32 13 79 13q51 0 95 -41q36 -34 63 -93l-18 -8q-26 57 -62.5 89.5t-77.5 32.5q-89 0 -129 -58q-56 -80 -56 -293v-15h222v-20h-222v-15q-4 -181 -36 -258
q-6 -14 -13 -25l-15 -23h424v-21z" />
    <glyph glyph-name="currency" unicode="&#xa4;" horiz-adv-x="560" 
d="M484 364q0 -65 -33 -117l-7 -10l70 -70l-14 -14l-68 68l-11 -11q-53 -52 -125 -52t-125 52l-11 11l-68 -68l-14 14l70 70l-7 10q-33 52 -33 117t34 118l7 10l-72 72l14 14l70 -70l11 10q53 52 124 52t124 -51l11 -11l69 70l14 -14l-71 -71l7 -10q34 -53 34 -119zM296 178
q70 0 119 55t49 131t-49 131t-119 55t-119 -55t-49 -131t49 -131t119 -55z" />
    <glyph glyph-name="yen" unicode="&#xa5;" horiz-adv-x="664" 
d="M375 403q-5 -15 -9 -34l-5 -18h165v-19h-166l-1 -15v-60v-15h167v-20h-167v-207h-19v207h-169v20h169v15v60l-1 15h-168v19h166l-4 18q-4 19 -9 34l-1 2l-258 347l15 12l269 -363l270 363l15 -12l-258 -347z" />
    <glyph glyph-name="section" unicode="&#xa7;" horiz-adv-x="475" 
d="M436 390q0 -61 -40 -100q-17 -16 -40 -26l-21 -10l17 -15q35 -31 35 -82q0 -61 -40 -100q-42 -42 -117 -42q-65 0 -98 17t-57 51l-6 8l16 12l6 -8q20 -29 50 -44.5t89 -15.5q62 0 99.5 33t37.5 89q0 62 -68 91l-3 1h-2q-22 6 -87 28.5t-80 32.5q-50 33 -50 95q0 56 35 89
q20 19 51 28l29 9l-24 18q-43 32 -43 89t36 89q39 37 118 37q76 0 124 -68l6 -9l-16 -11l-6 8q-42 60 -108 60q-71 0 -105 -31q-29 -27 -29 -75q0 -22 8 -38.5t18.5 -27.5t31 -21t37 -15t44.5 -13q74 -21 102 -39q50 -33 50 -94zM302 270q53 6 83.5 38t30.5 82
q0 22 -7.5 38.5t-18 27t-31 20t-36.5 15t-44 13.5q-15 4 -23 6l-2 1h-24q-71 0 -105 -32q-28 -26 -28 -74q0 -22 7.5 -39t18 -27.5t31 -20.5t37 -15.5t44.5 -12.5q41 -12 60 -19l4 -1h3z" />
    <glyph glyph-name="guillemotleft" unicode="&#xab;" horiz-adv-x="441" 
d="M209 152l-139 138l140 138v-29l-111 -109l110 -109v-29zM366 152l-140 137l140 139v-29l-111 -109l111 -110v-28z" />
    <glyph glyph-name="uni00B5" unicode="&#xb5;" horiz-adv-x="522" 
d="M452 769h20v-335q0 -85 -56 -145q-56 -61 -135 -61h-122q-21 1 -34 -12q-15 -14 -15 -45v-156h-20v754h20v-535l21 9q14 6 29 5h121q71 0 121 54.5t50 131.5v335z" />
    <glyph glyph-name="paragraph" unicode="&#xb6;" horiz-adv-x="611" 
d="M555 769v-754h-20v344q-1 18 -11 29q-13 14 -40 15h-16v-388h-20v388h-201q-75 0 -128.5 53.5t-53.5 129t53.5 129t128.5 53.5zM247 423h201v326l-201 -1q-67 0 -114.5 -47.5t-47.5 -115t47.5 -115t114.5 -47.5zM483 423q18 -1 32 -6l20 -8v340h-67v-326h15z" />
    <glyph glyph-name="guillemotright" unicode="&#xbb;" horiz-adv-x="445" 
d="M236 152v29l111 109l-111 109v29l139 -138zM79 151v29l111 110l-111 109v29l140 -139z" />
    <glyph glyph-name="questiondown" unicode="&#xbf;" horiz-adv-x="489" 
d="M273.5 703q-13.5 0 -21.5 9t-8 24.5t8 24t22 8.5t22 -9t8 -24t-8.5 -24t-22 -9zM116 65q-47 45 -47 123q0 92 42 143q24 30 84 60q40 20 58 38t18 53v9h19v-9q0 -23 -6.5 -40.5t-21 -30.5t-25.5 -19.5t-33 -17.5t-34.5 -18.5t-30.5 -23t-27.5 -33t-16.5 -46.5t-7 -65
q0 -76 49 -115t141 -39q45 0 85.5 22.5t68.5 63.5l5 8l15 -11l-5 -8q-31 -45 -75.5 -69.5t-93.5 -24.5q-108 0 -162 50z" />
    <glyph glyph-name="Agrave" unicode="&#xc0;" horiz-adv-x="649" 
d="M354 769l263 -754h-21l-107 308l-16 -8q-23 -11 -64 -11h-148q-46 0 -74 -27q-13 -12 -18 -25h-1l-82 -237h-21l263 754h26zM409 323q45 0 64 15l8 6l-140 402l-153 -439l29 10q20 6 44 6h148zM261 913l12 16l141 -108l-12 -16z" />
    <glyph glyph-name="Aacute" unicode="&#xc1;" horiz-adv-x="649" 
d="M354 769l263 -754h-21l-107 308l-16 -8q-23 -11 -64 -11h-148q-46 0 -74 -27q-13 -12 -18 -25h-1l-82 -237h-21l263 754h26zM409 323q45 0 64 15l8 6l-140 402l-153 -439l29 10q20 6 44 6h148zM237 821l141 108l12 -16l-141 -108z" />
    <glyph glyph-name="Acircumflex" unicode="&#xc2;" horiz-adv-x="649" 
d="M354 769l263 -754h-21l-107 308l-16 -8q-23 -11 -64 -11h-148q-46 0 -74 -27q-13 -12 -18 -25h-1l-82 -237h-21l263 754h26zM409 323q45 0 64 15l8 6l-140 402l-153 -439l29 10q20 6 44 6h148zM348 918l-163 -114l-12 17l175 122l159 -122l-12 -16z" />
    <glyph glyph-name="Atilde" unicode="&#xc3;" horiz-adv-x="649" 
d="M354 769l263 -754h-21l-107 308l-16 -8q-23 -11 -64 -11h-148q-46 0 -74 -27q-13 -12 -18 -25h-1l-82 -237h-21l263 754h26zM409 323q45 0 64 15l8 6l-140 402l-153 -439l29 10q20 6 44 6h148zM251 846l-4 -9l-18 9l4 9q19 42 45 48q15 3 29.5 -4t35.5 -24q1 -1 7.5 -6.5
t9.5 -7.5t10.5 -6.5t11.5 -4t12 0.5q20 4 39 46l5 9l18 -9l-4 -9q-24 -50 -53 -57q-5 -1 -10 -1q-21 0 -59 30q-1 0 -8 6.5t-11.5 10t-12.5 6t-16 0.5q-16 -4 -31 -37z" />
    <glyph glyph-name="Adieresis" unicode="&#xc4;" horiz-adv-x="650" 
d="M354 769l263 -754h-21l-107 308l-16 -8q-23 -11 -64 -11h-148q-46 0 -74 -27q-13 -12 -18 -25h-1l-82 -237h-21l263 754h26zM409 323q45 0 64 15l8 6l-140 402l-153 -439l29 10q20 6 44 6h148zM251 825q-10 0 -10 10v14q0 10 10 10t10 -10v-14q0 -10 -10 -10zM431 825
q-10 0 -10 10v14q0 10 10 10t10 -10v-14q0 -10 -10 -10z" />
    <glyph glyph-name="Aring" unicode="&#xc5;" horiz-adv-x="649" 
d="M340 796h-2l-16 3q-22 6 -36.5 24.5t-14.5 41.5q0 29 20.5 49t49 20t48.5 -20t20 -49q0 -23 -14 -41.5t-37 -24.5zM328 769h26l263 -754h-21l-107 308l-16 -8q-23 -11 -64 -11h-148q-46 0 -74 -27q-13 -12 -18 -25h-1l-82 -237h-21zM291 865q0 -20 14.5 -34.5t34.5 -14.5
t34.5 14.5t14.5 34.5t-14.5 34.5t-34.5 14.5t-34.5 -14.5t-14.5 -34.5zM409 323q45 0 64 15l8 6l-140 402l-153 -439l29 10q20 6 44 6h148z" />
    <glyph glyph-name="AE" unicode="&#xc6;" horiz-adv-x="817" 
d="M781 16l-437 -1v296l-19 -6q-22 -7 -53 -7h-12q-24 0 -42.5 -6.5t-29 -17t-15 -17t-6.5 -11.5l-81 -230h-21l263 753h453v-20h-417v-340l21 8q15 6 36 6h360v-20h-360q-31 0 -45 -15q-11 -12 -12 -31v-322l417 1v-20zM272 318q53 0 69 19l3 4v414l-158 -453l29 10
q21 6 45 6h12z" />
    <glyph glyph-name="Ccedilla" unicode="&#xc7;" horiz-adv-x="663" 
d="M603 173l6 10l17 -11l-5 -9q-43 -69 -105 -108q-54 -34 -116 -39l-14 -2v-46l10 -4q16 -6 28 -21q18 -23 18 -56t-18 -56q-20 -24 -48 -24q-34 0 -54 32l-5 9l17 10l6 -8q14 -23 36 -23q21 0 33.5 18.5t12.5 41.5t-12.5 41.5t-33.5 18.5h-10v36v32l-14 1q-48 5 -92 29
q-55 29 -97 81q-88 110 -88 266t88 266q42 52 97 81q57 30 119 30q73 0 137 -40q62 -39 105 -108l5 -9l-17 -10l-6 8q-40 66 -99 102.5t-125 36.5q-78 0 -143.5 -48.5t-103 -130.5t-37.5 -178t37.5 -178t103 -130.5t143.5 -48.5q67 0 125 36t99 102z" />
    <glyph glyph-name="Egrave" unicode="&#xc8;" horiz-adv-x="574" 
d="M230 929l12 16l141 -108l-12 -16zM525 35v-20l-437 -1v754l437 1v-20h-417v-340l20 8q16 6 36 6h361v-20h-361q-30 0 -44 -16q-11 -12 -12 -30v-323z" />
    <glyph glyph-name="Eacute" unicode="&#xc9;" horiz-adv-x="574" 
d="M230 837l141 108l12 -16l-141 -108zM525 35v-20l-437 -1v754l437 1v-20h-417v-340l20 8q16 6 36 6h361v-20h-361q-30 0 -44 -16q-11 -12 -12 -30v-323z" />
    <glyph glyph-name="Ecircumflex" unicode="&#xca;" horiz-adv-x="574" 
d="M314 934l-163 -113l-11 16l175 122l158 -121l-12 -16zM525 35v-20l-437 -1v754l437 1v-20h-417v-340l20 8q16 6 36 6h361v-20h-361q-30 0 -44 -16q-11 -12 -12 -30v-323z" />
    <glyph glyph-name="Edieresis" unicode="&#xcb;" horiz-adv-x="574" 
d="M219 825q-10 0 -10 10v14q0 10 10 10t10 -10v-14q0 -10 -10 -10zM399 825q-10 0 -10 10v14q0 10 10 10t10 -10v-14q0 -10 -10 -10zM525 35v-20l-437 -1v754l437 1v-20h-417v-340l20 8q16 6 36 6h361v-20h-361q-30 0 -44 -16q-11 -12 -12 -30v-323z" />
    <glyph glyph-name="Igrave" unicode="&#xcc;" horiz-adv-x="260" 
d="M202 821l-141 108l12 16l141 -108zM103 15v754h20v-754h-20z" />
    <glyph glyph-name="Iacute" unicode="&#xcd;" horiz-adv-x="257" 
d="M71 821l-12 16l141 108l12 -16zM126 15v754h20v-754h-20z" />
    <glyph glyph-name="Icircumflex" unicode="&#xce;" horiz-adv-x="429" 
d="M234 959l158 -121l-12 -16l-147 112l-163 -113l-11 16zM216 15v754h20v-754h-20z" />
    <glyph glyph-name="Idieresis" unicode="&#xcf;" horiz-adv-x="291" 
d="M63 859q10 0 10 -10v-14q0 -10 -10 -10t-10 10v14q0 10 10 10zM243 859q10 0 10 -10v-14q0 -10 -10 -10t-10 10v14q0 10 10 10zM143 15v754h20v-754h-20z" />
    <glyph glyph-name="Ntilde" unicode="&#xd1;" horiz-adv-x="603" 
d="M225 832l-4 -10l-18 9l4 9q19 42 45 48q15 3 29.5 -4t35.5 -24q1 -1 7.5 -6.5t9.5 -7.5t10.5 -6.5t11.5 -4t12 0.5q20 4 40 46l4 9l18 -9l-4 -9q-24 -50 -53 -57q-5 -1 -10 -1q-21 0 -59 30l-7.5 6.5t-12 10t-12.5 6t-16 0.5q-16 -3 -31 -36zM526 769h19v-754h-22
l-417 723v-723h-18v754h22l416 -722v722z" />
    <glyph glyph-name="Ograve" unicode="&#xd2;" 
d="M301 929l13 16l140 -108l-12 -16zM593 658q88 -111 88 -266.5t-88 -265.5q-42 -52 -96 -81q-57 -30 -119 -30t-119 30q-54 29 -96 81q-88 110 -88 265.5t88 266.5q42 52 96 81q57 30 119 30t119 -30q54 -29 96 -81zM378 35q78 0 143 48.5t102.5 130.5t37.5 178t-37.5 178
t-102.5 130.5t-143 48.5t-143.5 -48.5t-102.5 -130.5t-37 -178t37 -178t102.5 -130.5t143.5 -48.5z" />
    <glyph glyph-name="Oacute" unicode="&#xd3;" 
d="M301 837l141 108l12 -16l-140 -108zM593 658q88 -111 88 -266.5t-88 -265.5q-42 -52 -96 -81q-57 -30 -119 -30t-119 30q-54 29 -96 81q-88 110 -88 265.5t88 266.5q42 52 96 81q57 30 119 30t119 -30q54 -29 96 -81zM378 35q78 0 143 48.5t102.5 130.5t37.5 178
t-37.5 178t-102.5 130.5t-143 48.5t-143.5 -48.5t-102.5 -130.5t-37 -178t37 -178t102.5 -130.5t143.5 -48.5z" />
    <glyph glyph-name="Ocircumflex" unicode="&#xd4;" 
d="M385 934l-162 -113l-12 16l175 122l159 -121l-13 -16zM593 658q88 -111 88 -266.5t-88 -265.5q-42 -52 -96 -81q-57 -30 -119 -30t-119 30q-54 29 -96 81q-88 110 -88 265.5t88 266.5q42 52 96 81q57 30 119 30t119 -30q54 -29 96 -81zM378 35q78 0 143 48.5t102.5 130.5
t37.5 178t-37.5 178t-102.5 130.5t-143 48.5t-143.5 -48.5t-102.5 -130.5t-37 -178t37 -178t102.5 -130.5t143.5 -48.5z" />
    <glyph glyph-name="Otilde" unicode="&#xd5;" 
d="M287 832l-5 -10l-18 9l5 9q19 42 45 48q14 3 28.5 -4t35.5 -24q2 -1 8 -6.5t9 -7.5t10.5 -6.5t12 -4t12.5 0.5q20 4 39 46l4 9l19 -9l-5 -9q-23 -50 -52 -57q-5 -1 -10 -1q-22 0 -59 30q-1 0 -8.5 6.5t-12 10t-12.5 6t-15 0.5q-16 -3 -31 -36zM593 658q88 -111 88 -266.5
t-88 -265.5q-42 -52 -96 -81q-57 -30 -119 -30t-119 30q-54 29 -96 81q-88 110 -88 265.5t88 266.5q42 52 96 81q57 30 119 30t119 -30q54 -29 96 -81zM378 35q78 0 143 48.5t102.5 130.5t37.5 178t-37.5 178t-102.5 130.5t-143 48.5t-143.5 -48.5t-102.5 -130.5t-37 -178
t37 -178t102.5 -130.5t143.5 -48.5z" />
    <glyph glyph-name="Odieresis" unicode="&#xd6;" 
d="M288 825q-10 0 -10 10v14q0 10 10 10t10 -10v-14q0 -10 -10 -10zM468 825q-10 0 -10 10v14q0 10 10 10t10 -10v-14q0 -10 -10 -10zM593 658q88 -111 88 -266.5t-88 -265.5q-42 -52 -96 -81q-57 -30 -119 -30t-119 30q-54 29 -96 81q-88 110 -88 265.5t88 266.5
q42 52 96 81q57 30 119 30t119 -30q54 -29 96 -81zM378 35q78 0 143 48.5t102.5 130.5t37.5 178t-37.5 178t-102.5 130.5t-143 48.5t-143.5 -48.5t-102.5 -130.5t-37 -178t37 -178t102.5 -130.5t143.5 -48.5z" />
    <glyph glyph-name="multiply" unicode="&#xd7;" horiz-adv-x="171" 
 />
    <glyph glyph-name="Oslash" unicode="&#xd8;" horiz-adv-x="725" 
d="M674 769l-80 -107l7 -9q84 -109 84 -261q0 -155 -88 -266q-42 -52 -96 -81q-57 -30 -119 -30t-119 30q-37 20 -69 51l-12 12l-70 -93h-25l81 109l-7 9q-82 109 -82 259q0 156 88 266q42 52 96 81q57 30 119 30t119 -30q36 -19 67 -49l12 -12l68 91h26zM99 392
q0 -134 70 -234l11 -18l388 521l-9 9q-77 79 -177 79q-78 0 -143.5 -48.5t-102.5 -130.5t-37 -178zM665 392q0 135 -71 237l-12 17l-388 -521l9 -9q78 -81 179 -81q78 0 143 48.5t102.5 130.5t37.5 178z" />
    <glyph glyph-name="Ugrave" unicode="&#xd9;" horiz-adv-x="604" 
d="M240 929l13 16l141 -108l-13 -16zM529 769h20v-521q0 -97 -68 -164.5t-164 -67.5t-164 67.5t-68 164.5v521h20v-521q0 -88 62 -150t150 -62t150 62t62 150v521z" />
    <glyph glyph-name="Uacute" unicode="&#xda;" horiz-adv-x="604" 
d="M240 837l141 108l13 -16l-141 -108zM529 769h20v-521q0 -97 -68 -164.5t-164 -67.5t-164 67.5t-68 164.5v521h20v-521q0 -88 62 -150t150 -62t150 62t62 150v521z" />
    <glyph glyph-name="Ucircumflex" unicode="&#xdb;" horiz-adv-x="604" 
d="M325 934l-163 -113l-12 16l175 122l159 -121l-12 -16zM529 769h20v-521q0 -97 -68 -164.5t-164 -67.5t-164 67.5t-68 164.5v521h20v-521q0 -88 62 -150t150 -62t150 62t62 150v521z" />
    <glyph glyph-name="Udieresis" unicode="&#xdc;" horiz-adv-x="604" 
d="M227 825q-10 0 -10 10v14q0 10 10 10t10 -10v-14q0 -10 -10 -10zM407 825q-10 0 -10 10v14q0 10 10 10t10 -10v-14q0 -10 -10 -10zM529 769h20v-521q0 -97 -68 -164.5t-164 -67.5t-164 67.5t-68 164.5v521h20v-521q0 -88 62 -150t150 -62t150 62t62 150v521z" />
    <glyph glyph-name="germandbls" unicode="&#xdf;" horiz-adv-x="565" 
d="M87 15l-1 570q0 79 48 129q50 54 134 54q85 0 134 -54q45 -50 45 -129q0 -67 -41 -102q-24 -20 -79 -36q-30 -9 -40 -14q-10 -6 -12 -15l-2 -11l10 -5q6 -4 16.5 -6t37.5 -6q82 -11 118 -33q64 -41 64 -138q0 -41 -17 -80q-17 -36 -46 -64q-62 -60 -141 -60
q-83 0 -126 37l17 12q8 -6 17 -10q37 -19 92 -19q73 0 128.5 55.5t55.5 128.5q0 86 -55 121q-32 20 -109 30q-39 5 -53 10q-27 10 -27 33t22 37q12 7 44 16q24 7 38 13t32.5 19t27 35t8.5 52q0 31 -8.5 58.5t-26.5 51.5t-50 38.5t-74 14.5q-73 0 -117.5 -45t-44.5 -118
l1 -570h-20z" />
    <glyph glyph-name="agrave" unicode="&#xe0;" horiz-adv-x="506" 
d="M380 324q22 0 34 12q14 13 15 40v34q0 56 -48 95t-115 39q-42 0 -79 -17t-59 -47l-7 -8l-16 12l6 8q25 33 66.5 52.5t88.5 19.5q76 0 129 -45q54 -45 54 -109v-6v-24v-4v-207q0 -64 -57 -110q-56 -44 -134.5 -44t-134.5 44q-57 46 -57 110.5t57 109.5q56 45 135 45h122z
M429 169v148l-20 -8q-15 -6 -30 -5h-121q-72 0 -122 -41q-50 -39 -50 -94t50 -94q50 -40 121.5 -40t122.5 40q49 39 49 94zM181 747l12 16l141 -108l-12 -16z" />
    <glyph glyph-name="aacute" unicode="&#xe1;" horiz-adv-x="506" 
d="M380 324q22 0 34 12q14 13 15 40v34q0 56 -48 95t-115 39q-42 0 -79 -17t-59 -47l-7 -8l-16 12l6 8q25 33 66.5 52.5t88.5 19.5q76 0 129 -45q54 -45 54 -109v-6v-24v-4v-207q0 -64 -57 -110q-56 -44 -134.5 -44t-134.5 44q-57 46 -57 110.5t57 109.5q56 45 135 45h122z
M429 169v148l-20 -8q-15 -6 -30 -5h-121q-72 0 -122 -41q-50 -39 -50 -94t50 -94q50 -40 121.5 -40t122.5 40q49 39 49 94zM181 655l141 108l12 -16l-141 -108z" />
    <glyph glyph-name="acircumflex" unicode="&#xe2;" horiz-adv-x="514" 
d="M386 324q22 0 34 12q14 13 15 40v34q0 56 -48 95t-115 39q-42 0 -79 -17t-59 -47l-7 -8l-16 12l6 8q25 33 66.5 52.5t88.5 19.5q76 0 129 -45q54 -45 54 -109v-6v-24v-4v-207q0 -64 -57 -110q-56 -44 -134.5 -44t-134.5 44q-57 46 -57 110.5t57 109.5q56 45 135 45h122z
M435 169v148l-20 -8q-15 -6 -30 -5h-121q-72 0 -122 -41q-50 -39 -50 -94t50 -94q50 -40 121.5 -40t122.5 40q49 39 49 94zM283 748l-107 -72l-11 16l118 82l119 -82l-12 -16z" />
    <glyph glyph-name="atilde" unicode="&#xe3;" horiz-adv-x="506" 
d="M380 324q22 0 34 12q14 13 15 40v34q0 56 -48 95t-115 39q-42 0 -79 -17t-59 -47l-7 -8l-16 12l6 8q25 33 66.5 52.5t88.5 19.5q76 0 129 -45q54 -45 54 -109v-6v-24v-4v-207q0 -64 -57 -110q-56 -44 -134.5 -44t-134.5 44q-57 46 -57 110.5t57 109.5q56 45 135 45h122z
M429 169v148l-20 -8q-15 -6 -30 -5h-121q-72 0 -122 -41q-50 -39 -50 -94t50 -94q50 -40 121.5 -40t122.5 40q49 39 49 94zM173 707l-5 -9l-18 9l5 9q19 42 45 48q14 3 28.5 -4t35.5 -24q2 -1 8 -6.5t9 -7.5t10.5 -6.5t12 -4t12.5 -0.5q20 5 39 47l5 9l18 -9l-5 -9
q-23 -50 -52 -57q-5 -1 -10 -1q-22 0 -59 29q-1 1 -8 7.5t-11.5 9.5t-13 6t-15.5 1q-16 -4 -31 -37z" />
    <glyph glyph-name="adieresis" unicode="&#xe4;" horiz-adv-x="506" 
d="M380 324q22 0 34 12q14 13 15 40v34q0 56 -48 95t-115 39q-42 0 -79 -17t-59 -47l-7 -8l-16 12l6 8q25 33 66.5 52.5t88.5 19.5q76 0 129 -45q54 -45 54 -109v-6v-24v-4v-207q0 -64 -57 -110q-56 -44 -134.5 -44t-134.5 44q-57 46 -57 110.5t57 109.5q56 45 135 45h122z
M429 169v148l-20 -8q-15 -6 -30 -5h-121q-72 0 -122 -41q-50 -39 -50 -94t50 -94q50 -40 121.5 -40t122.5 40q49 39 49 94zM180 689q-10 0 -10 10v13q0 10 10 10t10 -10v-13q0 -10 -10 -10zM360 689q-10 0 -10 10v13q0 10 10 10t10 -10v-13q0 -10 -10 -10z" />
    <glyph glyph-name="aring" unicode="&#xe5;" horiz-adv-x="506" 
d="M380 324q22 0 34 12q14 13 15 40v34q0 56 -48 95t-115 39q-42 0 -79 -17t-59 -47l-7 -8l-16 12l6 8q25 33 66.5 52.5t88.5 19.5q76 0 129 -45q54 -45 54 -109v-6v-24v-4v-207q0 -64 -57 -110q-56 -44 -134.5 -44t-134.5 44q-57 46 -57 110.5t57 109.5q56 45 135 45h122z
M429 169v148l-20 -8q-15 -6 -30 -5h-121q-72 0 -122 -41q-50 -39 -50 -94t50 -94q50 -40 121.5 -40t122.5 40q49 39 49 94zM270.5 628q-28.5 0 -48.5 20t-20 48.5t20 49t48.5 20.5t49 -20.5t20.5 -49t-20.5 -48.5t-49 -20zM271 746q-20 0 -34.5 -14.5t-14.5 -34.5
t14.5 -34.5t34.5 -14.5t34.5 14.5t14.5 34.5t-14.5 34.5t-34.5 14.5z" />
    <glyph glyph-name="ae" unicode="&#xe6;" horiz-adv-x="853" 
d="M808 108l16 -12l-6 -8q-53 -72 -163 -72q-96 0 -162 81q-13 15 -23 32l-16 27l-11 -30q-14 -38 -50 -67q-56 -44 -134.5 -44t-134.5 44q-57 46 -57 110.5t57 109.5q56 44 134 45l4.5 -0.5t11 -1t15.5 -1t19 -0.5h21t21.5 0.5t20.5 1.5t18.5 2.5t15.5 4t10 6.5
q14 13 15 40v34q0 56 -48 95t-115 39q-42 0 -79 -17t-59 -47l-7 -8l-16 12l6 8q25 33 66.5 52.5t88.5 19.5q76 0 129 -45q34 -28 47 -66l11 -30l16 27q11 18 23 33q32 38 72 59q43 22 89 22q77 0 123 -38q43 -35 43 -87q0 -55 -48 -94q-53 -41 -141 -41h-136h-3
q-16 0 -27 -10q-20 -20 -14 -50q13 -89 70 -148.5t134 -59.5q100 0 147 64zM654 544q-76 0 -133 -59.5t-70 -147.5l-4 -25l24 8q11 5 23 4h137q81 0 129 37q40 32 40 78q0 43 -39 74t-107 31zM381 75q49 39 49 95v3v9t-0.5 13.5t-0.5 16.5v18t-0.5 18t-0.5 17v14t-0.5 10
t-0.5 5l1 21l-21 -7q-13 -5 -27 -4h-121q-72 0 -122 -41q-50 -39 -50 -94t50 -94q50 -40 121.5 -40t122.5 40z" />
    <glyph glyph-name="ccedilla" unicode="&#xe7;" horiz-adv-x="507" 
d="M438 99l6 8l16 -12l-6 -8q-23 -31 -58.5 -49.5t-78.5 -21.5l-14 -2v-46l10 -3q16 -6 27 -21q19 -23 19 -55.5t-19 -55.5q-19 -24 -47 -24q-33 0 -53 32l-5 8l17 11l5 -9q14 -22 36 -22q21 0 33.5 18.5t12.5 41t-12.5 41t-33.5 18.5h-10v67l-13 2q-31 5 -59 20
q-41 21 -72 59q-66 80 -66 193q0 114 66 194q31 38 72 59q42 22 89 22q48 0 88.5 -19t65.5 -53l6 -8l-16 -12l-6 8q-22 30 -59 47t-79 17q-87 0 -147 -75t-60 -180q0 -104 60 -179t147 -75q42 0 79 17t59 47z" />
    <glyph glyph-name="egrave" unicode="&#xe8;" horiz-adv-x="514" 
d="M453 108l16 -12l-6 -8q-54 -72 -164 -72q-95 0 -162 81q-44 54 -59 128l-3 21q-3 21 -3 44q0 113 66 193q31 38 72 59q42 22 89 22q77 0 123 -38q43 -35 43 -87q0 -55 -48 -94q-53 -41 -142 -41h-136h-2q-17 0 -28 -10q-20 -21 -14 -49q13 -90 70.5 -149.5t133.5 -59.5
q100 0 148 64zM299 544q-76 0 -133 -59.5t-70 -147.5l-4 -25l24 8q11 5 23 4h136q82 0 129 37q41 32 41 78q0 43 -39 74t-107 31zM197 747l12 16l141 -108l-12 -16z" />
    <glyph glyph-name="eacute" unicode="&#xe9;" horiz-adv-x="514" 
d="M453 108l16 -12l-6 -8q-54 -72 -164 -72q-95 0 -162 81q-44 54 -59 128l-3 21q-3 21 -3 44q0 113 66 193q31 38 72 59q42 22 89 22q77 0 123 -38q43 -35 43 -87q0 -55 -48 -94q-53 -41 -142 -41h-136h-2q-17 0 -28 -10q-20 -21 -14 -49q13 -90 70.5 -149.5t133.5 -59.5
q100 0 148 64zM299 544q-76 0 -133 -59.5t-70 -147.5l-4 -25l24 8q11 5 23 4h136q82 0 129 37q41 32 41 78q0 43 -39 74t-107 31zM197 655l141 108l12 -16l-141 -108z" />
    <glyph glyph-name="ecircumflex" unicode="&#xea;" horiz-adv-x="515" 
d="M459 108l16 -12l-6 -8q-54 -72 -164 -72q-95 0 -162 81q-44 54 -59 128l-3 21q-3 21 -3 44q0 113 66 193q31 38 72 59q42 22 89 22q77 0 123 -38q43 -35 43 -87q0 -55 -48 -94q-53 -41 -142 -41h-136h-2q-17 0 -28 -10q-20 -21 -14 -49q13 -90 70.5 -149.5t133.5 -59.5
q100 0 148 64zM305 544q-76 0 -133 -59.5t-70 -147.5l-4 -25l24 8q11 5 23 4h136q82 0 129 37q41 32 41 78q0 43 -39 74t-107 31zM303 748l-107 -72l-11 17l118 82l119 -82l-11 -17z" />
    <glyph glyph-name="edieresis" unicode="&#xeb;" horiz-adv-x="515" 
d="M454 108l16 -12l-6 -8q-54 -72 -164 -72q-95 0 -162 81q-44 54 -59 128l-3 21q-3 21 -3 44q0 113 66 193q31 38 72 59q42 22 89 22q77 0 123 -38q43 -35 43 -87q0 -55 -48 -94q-53 -41 -142 -41h-136h-2q-17 0 -28 -10q-20 -21 -14 -49q13 -90 70.5 -149.5t133.5 -59.5
q100 0 148 64zM300 544q-76 0 -133 -59.5t-70 -147.5l-4 -25l24 8q11 5 23 4h136q82 0 129 37q41 32 41 78q0 43 -39 74t-107 31zM211 689q-10 0 -10 10v13q0 10 10 10t10 -10v-13q0 -10 -10 -10zM391 689q-10 0 -10 10v13q0 10 10 10t10 -10v-13q0 -10 -10 -10z" />
    <glyph glyph-name="igrave" unicode="&#xec;" horiz-adv-x="266" 
d="M123 15v549h20v-549h-20zM205 639l-141 108l12 16l141 -108z" />
    <glyph glyph-name="iacute" unicode="&#xed;" horiz-adv-x="265" 
d="M139 15v549h20v-549h-20zM73 639l-12 16l141 108l12 -16z" />
    <glyph glyph-name="icircumflex" unicode="&#xee;" horiz-adv-x="345" 
d="M172 15v549h20v-549h-20zM182 748l-108 -72l-11 16l118 82l119 -82l-11 -16z" />
    <glyph glyph-name="idieresis" unicode="&#xef;" horiz-adv-x="302" 
d="M148 15v549h20v-549h-20zM67 722q10 0 10 -10v-13q0 -10 -10 -10t-10 10v13q0 10 10 10zM247 722q10 0 10 -10v-13q0 -10 -10 -10t-10 10v13q0 10 10 10z" />
    <glyph glyph-name="eth" unicode="&#xf0;" horiz-adv-x="171" 
 />
    <glyph glyph-name="ntilde" unicode="&#xf1;" horiz-adv-x="525" 
d="M409 503.5q56 -60.5 56 -145.5v-343h-20v343q0 77 -50 131.5t-121 54.5t-121 -54.5t-50 -131.5v-343h-20v343q0 85 56 146q56 60 135 60t135 -60.5zM187 707l-4 -9l-18 9l4 9q19 42 45 48q15 3 29.5 -4t35.5 -24q1 -1 7.5 -6.5t9.5 -7.5t10.5 -6.5t11.5 -4t12 -0.5
q20 5 39 47l5 9l18 -9l-4 -9q-24 -50 -53 -57q-5 -1 -10 -1q-21 0 -59 29q-1 1 -8 7.5t-11.5 9.5t-12.5 6t-16 1q-16 -4 -31 -37z" />
    <glyph glyph-name="ograve" unicode="&#xf2;" horiz-adv-x="585" 
d="M469 477q68 -79 68 -190.5t-68 -191.5q-32 -37 -74 -58q-43 -21 -90.5 -21t-91.5 21q-41 21 -73 58q-68 80 -68 191.5t68 190.5q32 37 73 58q44 22 91.5 22t90.5 -22q42 -21 74 -58zM304.5 36q88.5 0 150.5 73.5t62 176.5t-62 177t-150.5 74t-150.5 -74t-62 -177
t62 -176.5t150.5 -73.5zM228 747l12 16l141 -108l-12 -16z" />
    <glyph glyph-name="oacute" unicode="&#xf3;" horiz-adv-x="585" 
d="M469 477q68 -79 68 -190.5t-68 -191.5q-32 -37 -74 -58q-43 -21 -90.5 -21t-91.5 21q-41 21 -73 58q-68 80 -68 191.5t68 190.5q32 37 73 58q44 22 91.5 22t90.5 -22q42 -21 74 -58zM304.5 36q88.5 0 150.5 73.5t62 176.5t-62 177t-150.5 74t-150.5 -74t-62 -177
t62 -176.5t150.5 -73.5zM218 655l141 108l12 -16l-141 -108z" />
    <glyph glyph-name="ocircumflex" unicode="&#xf4;" horiz-adv-x="593" 
d="M475 477q68 -79 68 -190.5t-68 -191.5q-32 -37 -74 -58q-43 -21 -90.5 -21t-91.5 21q-41 21 -73 58q-68 80 -68 191.5t68 190.5q32 37 73 58q44 22 91.5 22t90.5 -22q42 -21 74 -58zM310.5 36q88.5 0 150.5 73.5t62 176.5t-62 177t-150.5 74t-150.5 -74t-62 -177
t62 -176.5t150.5 -73.5zM310 748l-107 -72l-11 17l118 82l119 -82l-11 -17z" />
    <glyph glyph-name="otilde" unicode="&#xf5;" horiz-adv-x="585" 
d="M469 477q68 -79 68 -190.5t-68 -191.5q-32 -37 -74 -58q-43 -21 -90.5 -21t-91.5 21q-41 21 -73 58q-68 80 -68 191.5t68 190.5q32 37 73 58q44 22 91.5 22t90.5 -22q42 -21 74 -58zM304.5 36q88.5 0 150.5 73.5t62 176.5t-62 177t-150.5 74t-150.5 -74t-62 -177
t62 -176.5t150.5 -73.5zM213 707l-4 -9l-18 9l4 9q20 42 45 48q15 3 29.5 -4t35.5 -24q1 -1 7.5 -6.5t9.5 -7.5t10.5 -6.5t11.5 -4t12 -0.5q20 5 40 47l4 9l18 -9l-4 -9q-24 -50 -53 -57q-5 -1 -10 -1q-21 0 -59 29q0 1 -7.5 7.5t-12 9.5t-12.5 6t-15 1q-16 -4 -32 -37z" />
    <glyph glyph-name="odieresis" unicode="&#xf6;" horiz-adv-x="585" 
d="M469 477q68 -79 68 -190.5t-68 -191.5q-32 -37 -74 -58q-43 -21 -90.5 -21t-91.5 21q-41 21 -73 58q-68 80 -68 191.5t68 190.5q32 37 73 58q44 22 91.5 22t90.5 -22q42 -21 74 -58zM304.5 36q88.5 0 150.5 73.5t62 176.5t-62 177t-150.5 74t-150.5 -74t-62 -177
t62 -176.5t150.5 -73.5zM214 689q-10 0 -10 10v13q0 10 10 10t10 -10v-13q0 -10 -10 -10zM394 689q-10 0 -10 10v13q0 10 10 10t10 -10v-13q0 -10 -10 -10z" />
    <glyph glyph-name="divide" unicode="&#xf7;" horiz-adv-x="577" 
d="M296.5 81q13.5 0 22 -8.5t8.5 -24t-8.5 -24.5t-22.5 -9t-22 9t-8 24q0 16 8.5 24.5t22 8.5zM74 293v19h452v-19h-452zM296 515q-14 0 -22 9t-8 24t8.5 24t22 9t22 -8.5t8.5 -24.5t-8.5 -24.5t-22.5 -8.5z" />
    <glyph glyph-name="oslash" unicode="&#xf8;" horiz-adv-x="589" 
d="M527 564l-60 -81l7 -9q66 -78 66 -188q0 -111 -68 -191q-32 -37 -74 -58q-43 -21 -90.5 -21t-91.5 21q-22 11 -42 28l-12 9l-44 -59h-25l55 74l-8 9q-65 79 -65 188q0 112 68 191q32 37 73 58q44 22 91.5 22t90.5 -22q23 -11 42 -27l13 -10l49 66h25zM95 286
q0 -94 53 -165l12 -16l280 377l-10 9q-55 46 -123 46q-88 0 -150 -74t-62 -177zM520 286q0 95 -53 165l-12 17l-281 -377l11 -10q55 -45 122 -45q89 0 151 73.5t62 176.5z" />
    <glyph glyph-name="ugrave" unicode="&#xf9;" horiz-adv-x="521" 
d="M444 564h20v-343q0 -85 -56 -146q-56 -60 -135 -60t-135 60q-56 61 -56 146v343h20v-343q0 -77 50 -131.5t121 -54.5t121 54.5t50 131.5v343zM196 747l13 16l141 -108l-13 -16z" />
    <glyph glyph-name="uacute" unicode="&#xfa;" horiz-adv-x="521" 
d="M444 564h20v-343q0 -85 -56 -146q-56 -60 -135 -60t-135 60q-56 61 -56 146v343h20v-343q0 -77 50 -131.5t121 -54.5t121 54.5t50 131.5v343zM196 655l141 108l13 -16l-141 -108z" />
    <glyph glyph-name="ucircumflex" unicode="&#xfb;" horiz-adv-x="527" 
d="M448 564h20v-343q0 -85 -56 -146q-56 -60 -135 -60t-135 60q-56 61 -56 146v343h20v-343q0 -77 50 -131.5t121 -54.5t121 54.5t50 131.5v343zM277 748l-107 -72l-12 16l119 82l119 -82l-12 -16z" />
    <glyph glyph-name="udieresis" unicode="&#xfc;" horiz-adv-x="521" 
d="M444 564h20v-343q0 -85 -56 -146q-56 -60 -135 -60t-135 60q-56 61 -56 146v343h20v-343q0 -77 50 -131.5t121 -54.5t121 54.5t50 131.5v343zM183 689q-10 0 -10 10v13q0 10 10 10t10 -10v-13q0 -10 -10 -10zM363 689q-10 0 -10 10v13q0 10 10 10t10 -10v-13
q0 -10 -10 -10z" />
    <glyph glyph-name="OE" unicode="&#x152;" horiz-adv-x="970" 
d="M942 15l-437 -1v34l-22 -10q-51 -24 -106 -24q-62 0 -118 30q-55 29 -96 81q-88 110 -88 265t88 265q41 52 96 81q56 30 118 30q55 0 106 -24l22 -10v36l437 1v-20h-417v-340l20 8q15 6 36 6h361v-20h-361q-31 0 -45 -16q-11 -12 -11 -30v-323l417 1v-20zM377 34
q63 0 120 34l8 5v635l-8 4q-57 34 -120 34q-78 0 -143 -48.5t-102 -130t-37 -177t37 -177.5t102 -130.5t143 -48.5z" />
    <glyph glyph-name="oe" unicode="&#x153;" horiz-adv-x="940" 
d="M305.5 36q88.5 0 150.5 73.5t62 176.5q0 9 -1 19q-6 97 -66.5 164.5t-145.5 67.5q-88 0 -150 -74t-62 -177t62 -176.5t150.5 -73.5zM746 544q-76 0 -133 -59.5t-71 -147.5l-3 -25l23 8q12 5 24 4h136q82 0 129 37q41 32 41 78q0 43 -39 74t-107 31zM900 108l16 -12l-6 -8
q-54 -72 -164 -72q-95 0 -162 81q-26 31 -42 71l-13 33l-14 -33q-17 -40 -45 -73q-32 -37 -74 -58q-43 -21 -90.5 -21t-91.5 21q-41 21 -73 58q-68 80 -68 191.5t68 190.5q32 37 73 58q44 22 91.5 22t90.5 -22q42 -21 74 -58q27 -31 43 -70l15 -33l13 34q16 42 44 75
q31 38 72 59q42 22 89 22q77 0 123 -38q43 -35 43 -87q0 -55 -48 -94q-53 -41 -142 -41h-138h-3q-15 0 -25 -10q-20 -21 -14 -49q13 -90 70 -149.5t134 -59.5q100 0 148 64zM582 304h1h-1z" />
    <glyph glyph-name="mu" unicode="&#x3bc;" horiz-adv-x="532" 
d="M451 769h20v-335q0 -85 -56 -145q-56 -61 -135 -61h-122q-21 1 -34 -12q-15 -14 -15 -45v-156h-20v754h20v-535l21 9q14 6 29 5h121q71 0 121 54.5t50 131.5v335z" />
    <glyph glyph-name="perthousand" unicode="&#x2030;" horiz-adv-x="874" 
d="M518 769h20l-435 -754h-21zM177 523q-46 0 -79 34.5t-33 83.5t33 83.5t79 34.5t78.5 -34.5t32.5 -83.5t-32.5 -83.5t-78.5 -34.5zM176.5 741q-39.5 0 -66.5 -29.5t-27 -70.5t27 -71t66.5 -30t67 30t27.5 71t-27.5 70.5t-67 29.5zM450 252q46 0 79 -34.5t33 -84t-33 -84
t-79 -34.5t-79 34.5t-33 84t33 84t79 34.5zM450 33q39 0 66.5 29.5t27.5 71t-27.5 71t-66.5 29.5t-66.5 -29.5t-27.5 -71t27.5 -71t66.5 -29.5zM744 252q46 0 79 -34.5t33 -84t-33 -84t-79 -34.5t-78.5 34.5t-32.5 84t32.5 84t78.5 34.5zM744.5 33q39.5 0 66.5 29.5t27 71
t-27 71t-66.5 29.5t-67 -29.5t-27.5 -71t27.5 -71t67 -29.5z" />
    <glyph glyph-name="Euro" unicode="&#x20ac;" horiz-adv-x="728" 
d="M676 176l5 8l18 -11l-6 -9q-42 -68 -104 -107q-64 -41 -137 -41q-62 0 -119 30q-54 29 -96 81q-61 77 -81 181l-2 13h-85v20h82l-1 16q-1 18 -1 36q0 12 1 24v16h-81v20h84l2 13q17 111 82 192q42 52 96 81q57 30 119 30q73 0 137 -41q62 -38 104 -107l6 -9l-18 -10l-5 8
q-40 66 -99 102.5t-125 36.5q-101 0 -177.5 -79.5t-98.5 -198.5l-3 -18h261v-20h-263l-1 -14q-1 -13 -1 -26q0 -19 2 -38l1 -14h262v-20h-259l4 -19q24 -115 99.5 -190t173.5 -75q66 0 125 36.5t99 102.5z" />
    </font>
</defs>
</svg>
